<svg width="130" height="28" viewBox="0 0 130 28" fill="none" xmlns="http://www.w3.org/2000/svg">
<g id="Kinetix Logo">
<g id="Group" opacity="0.98">
<path id="Vector" d="M127.311 9.10059L129.727 6.7007C129.835 6.59272 129.897 6.44563 129.897 6.29296V0.288583C129.897 0.128466 129.768 0 129.607 0H123.566C123.412 0 123.264 0.0614402 123.155 0.169426L120.74 2.56932C120.648 2.66055 120.714 2.81508 120.843 2.81508H126.92C127 2.81508 127.066 2.88024 127.066 2.9603V8.99819C127.066 9.12666 127.222 9.19182 127.313 9.10059H127.311Z" fill="#FFF8F0"/>
<g id="Group_2">
<path id="Vector_2" d="M29.1407 1.02549C27.9865 1.50398 26.6767 1.50398 25.5244 1.02549C25.3164 0.937987 25.1084 1.14465 25.1946 1.35317C25.6761 2.50006 25.6761 3.80147 25.1946 4.94649C25.1065 5.15316 25.3145 5.35982 25.5244 5.27417C26.6786 4.79569 27.9884 4.79569 29.1407 5.27417C29.3487 5.36168 29.5567 5.15502 29.4705 4.94649C28.989 3.79961 28.989 2.4982 29.4705 1.35317C29.5586 1.14651 29.3506 0.939849 29.1407 1.02549Z" fill="#FFF8F0"/>
<path id="Vector_3" d="M0.835938 27.0597V0.389121C0.835938 0.17315 1.0102 0 1.22756 0H4.70716C4.92265 0 5.09878 0.17315 5.09878 0.389121V11.0239C5.09878 11.238 5.27305 11.413 5.4904 11.413H5.55599C5.66654 11.413 5.77334 11.3664 5.84642 11.2845L15.68 0.387259C15.903 0.141499 16.2197 0 16.5532 0H20.7055C21.0465 0 21.2245 0.402154 20.9941 0.651638L9.36538 13.2655C9.22859 13.4144 9.22859 13.6434 9.36538 13.7905L21.4213 26.7972C21.6517 27.0467 21.4737 27.4489 21.1327 27.4489H16.8249C16.4932 27.4489 16.1766 27.3092 15.9536 27.0635L5.84267 15.9298C5.76772 15.8478 5.66279 15.8013 5.55224 15.8013H5.48666C5.27117 15.8013 5.09504 15.9744 5.09504 16.1904V27.0597C5.09504 27.2739 4.92078 27.4489 4.70342 27.4489H1.22756C1.01207 27.4489 0.835938 27.2757 0.835938 27.0597Z" fill="#FFF8F0"/>
<path id="Vector_4" d="M28.9518 8.11621H25.669C25.4527 8.11621 25.2773 8.29043 25.2773 8.50533V27.0584C25.2773 27.2733 25.4527 27.4475 25.669 27.4475H28.9518C29.1681 27.4475 29.3434 27.2733 29.3434 27.0584V8.50533C29.3434 8.29043 29.1681 8.11621 28.9518 8.11621Z" fill="#FFF8F0"/>
<path id="Vector_5" d="M34.1035 27.0596V8.50464C34.1035 8.29053 34.2778 8.11552 34.4951 8.11552H37.6993C37.9148 8.11552 38.0909 8.28867 38.0909 8.50464V10.629C38.0909 10.8431 38.2652 11.0181 38.4825 11.0181C38.6268 11.0181 38.758 10.9399 38.8254 10.8152C39.2077 10.1077 39.8317 9.44486 40.6955 8.82301C41.6417 8.14345 43.0489 7.80273 44.919 7.80273C46.3918 7.80273 47.7015 8.13042 48.8464 8.78392C49.9913 9.43742 50.8926 10.359 51.5503 11.5487C52.208 12.7384 52.5378 14.1702 52.5378 15.8421V27.0596C52.5378 27.2737 52.3635 27.4487 52.1461 27.4487H48.8633C48.6478 27.4487 48.4717 27.2755 48.4717 27.0596V16.1549C48.4717 14.4811 48.0501 13.2467 47.2087 12.4498C46.3655 11.653 45.2094 11.2546 43.7366 11.2546C42.0521 11.2546 40.7048 11.8038 39.6911 12.9004C38.6774 13.9989 38.1715 15.5926 38.1715 17.6853V27.0596C38.1715 27.2737 37.9972 27.4487 37.7799 27.4487H34.497C34.2815 27.4487 34.1054 27.2755 34.1054 27.0596H34.1035Z" fill="#FFF8F0"/>
<path id="Vector_6" d="M65.9944 27.9982C64.0213 27.9982 62.2974 27.5867 60.8246 26.7619C59.3518 25.939 58.1994 24.7753 57.3712 23.2728C56.543 21.7703 56.1289 20.0258 56.1289 18.0374V17.5682C56.1289 15.5556 56.5355 13.798 57.3525 12.2937C58.1676 10.7893 59.305 9.62754 60.7665 8.80461C62.2262 7.98168 63.9163 7.56836 65.837 7.56836C67.7576 7.56836 69.3428 7.97982 70.75 8.80461C72.1572 9.62754 73.2571 10.7707 74.046 12.236C74.8348 13.6993 75.2302 15.4122 75.2302 17.3727V18.514C75.2302 18.7281 75.056 18.9031 74.8386 18.9031H60.6859C60.4592 18.9031 60.2775 19.0949 60.2962 19.3183C60.4236 20.8245 60.9876 22.0385 61.9901 22.9619C63.0806 23.9673 64.4429 24.47 66.0749 24.47C67.6002 24.47 68.7507 24.1311 69.5283 23.4516C70.201 22.8614 70.7425 22.1911 71.1491 21.4427C71.2503 21.2546 71.4845 21.1802 71.6757 21.2788L74.3289 22.6435C74.5238 22.7441 74.6006 22.9843 74.4919 23.176C74.1378 23.8035 73.6675 24.457 73.081 25.1384C72.3839 25.9483 71.4695 26.6278 70.3378 27.1771C69.206 27.7263 67.7595 28 65.9962 28L65.9944 27.9982ZM60.7778 15.8032H70.6526C70.8924 15.8032 71.0723 15.591 71.0404 15.3564C70.8681 14.1052 70.3565 13.1091 69.5077 12.3719C68.5596 11.5489 67.3229 11.1356 65.7976 11.1356C64.2724 11.1356 63.0282 11.5471 62.0688 12.3719C61.2143 13.1054 60.656 14.0903 60.3955 15.3303C60.3449 15.5723 60.5285 15.8013 60.7778 15.8013V15.8032Z" fill="#FFF8F0"/>
<path id="Vector_7" d="M84.8952 27.4495C83.711 27.4495 82.7703 27.0976 82.0733 26.392C81.3763 25.6864 81.0277 24.7443 81.0277 23.5676V11.9182C81.0277 11.7041 80.8535 11.5291 80.6361 11.5291H77.4619C77.2464 11.5291 77.0703 11.3559 77.0703 11.1399V8.50546C77.0703 8.29135 77.2446 8.11634 77.4619 8.11634H80.6361C80.8516 8.11634 81.0277 7.94319 81.0277 7.72722V2.11568C81.0277 1.90157 81.202 1.72656 81.4194 1.72656H84.7022C84.9177 1.72656 85.0938 1.89971 85.0938 2.11568V7.72908C85.0938 7.94319 85.2681 8.1182 85.4855 8.1182H90.5053C90.7208 8.1182 90.8969 8.29135 90.8969 8.50732V11.1418C90.8969 11.3559 90.7227 11.5309 90.5053 11.5309H85.4855C85.27 11.5309 85.0938 11.7041 85.0938 11.92V22.8638C85.0938 23.6477 85.4611 24.0387 86.1994 24.0387H89.8738C90.0893 24.0387 90.2655 24.2118 90.2655 24.4278V27.0623C90.2655 27.2764 90.0912 27.4514 89.8738 27.4514H84.8971L84.8952 27.4495Z" fill="#FFF8F0"/>
<g id="Group_3">
<g id="Group_4">
<path id="Vector_8" d="M98.7794 1.02647C97.6252 1.50496 96.3154 1.50496 95.163 1.02647C94.955 0.938964 94.747 1.14563 94.8332 1.35415C95.3148 2.50103 95.3148 3.80245 94.8332 4.94747C94.7452 5.15413 94.9532 5.36079 95.163 5.27515C96.3173 4.79666 97.627 4.79666 98.7794 5.27515C98.9874 5.36266 99.1954 5.15599 99.1092 4.94747C98.6276 3.80059 98.6276 2.49917 99.1092 1.35415C99.1973 1.14749 98.9893 0.940826 98.7794 1.02647Z" fill="#FFF8F0"/>
<path id="Vector_9" d="M98.5924 8.11914H95.3096C95.0933 8.11914 94.918 8.29336 94.918 8.50826V27.0613C94.918 27.2762 95.0933 27.4505 95.3096 27.4505H98.5924C98.8087 27.4505 98.9841 27.2762 98.9841 27.0613V8.50826C98.9841 8.29336 98.8087 8.11914 98.5924 8.11914Z" fill="#FFF8F0"/>
</g>
<path id="Vector_10" d="M102.966 26.8258L109.734 17.9188C109.839 17.781 109.839 17.5893 109.734 17.4515L103.123 8.74001C102.928 8.48308 103.112 8.11816 103.436 8.11816H107.227C107.352 8.11816 107.468 8.17774 107.543 8.27828L112.4 14.8989C112.473 14.9995 112.591 15.059 112.717 15.059H112.951C113.076 15.059 113.193 14.9995 113.268 14.8989L118.124 8.27828C118.198 8.17774 118.316 8.11816 118.441 8.11816H122.269C122.593 8.11816 122.777 8.48494 122.58 8.74188L115.934 17.4515C115.829 17.5893 115.827 17.781 115.934 17.9207L122.702 26.8276C122.897 27.0846 122.713 27.4513 122.389 27.4513H118.52C118.394 27.4513 118.276 27.3918 118.203 27.2912L113.268 20.516C113.195 20.4155 113.076 20.3559 112.951 20.3559H112.719C112.593 20.3559 112.475 20.4155 112.402 20.516L107.466 27.2912C107.393 27.3918 107.275 27.4513 107.15 27.4513H103.28C102.958 27.4513 102.774 27.0846 102.967 26.8276L102.966 26.8258Z" fill="#FFF8F0"/>
</g>
</g>
</g>
</g>
</svg>
