<svg width="16" height="16" viewBox="0 0 16 16" fill="none" xmlns="http://www.w3.org/2000/svg">
<g clip-path="url(#clip0_69_257)">
<path d="M9.333 1.33305C9.23636 1.33196 9.14064 1.35189 9.05247 1.39146C8.9643 1.43103 8.88579 1.4893 8.82238 1.56222C8.75896 1.63515 8.71216 1.72099 8.68521 1.8138C8.65827 1.90661 8.65183 2.00417 8.66633 2.09972C8.69768 2.26144 8.78506 2.40692 8.9131 2.51057C9.04113 2.61422 9.20162 2.66939 9.36633 2.66638H12.3997L8.233 6.83305C8.10155 6.9487 8.02088 7.11142 8.00841 7.28606C7.99594 7.46069 8.05266 7.63322 8.16633 7.76638C8.22492 7.84244 8.30091 7.90333 8.38792 7.94393C8.47492 7.98454 8.5704 8.00367 8.66633 7.99972C8.84217 7.99721 9.00991 7.92533 9.13299 7.79972L13.333 3.59972V6.63305C13.33 6.79776 13.3852 6.95824 13.4888 7.08628C13.5925 7.21432 13.7379 7.3017 13.8997 7.33305C13.9952 7.34755 14.0928 7.34111 14.1856 7.31416C14.2784 7.28722 14.3642 7.24042 14.4372 7.177C14.5101 7.11359 14.5684 7.03508 14.6079 6.94691C14.6475 6.85874 14.6674 6.76302 14.6663 6.66638V1.99972C14.6663 1.82291 14.5961 1.65334 14.4711 1.52831C14.346 1.40329 14.1765 1.33305 13.9997 1.33305H9.333Z" fill="#646668"/>
<path d="M13.8997 9.99979C13.738 10.0311 13.5925 10.1185 13.4888 10.2466C13.3852 10.3746 13.33 10.5351 13.333 10.6998V13.3331H2.66634V2.66646H5.33301C5.42964 2.66755 5.52536 2.64762 5.61353 2.60805C5.7017 2.56848 5.78021 2.51021 5.84363 2.43729C5.90704 2.36436 5.95384 2.27852 5.98079 2.18571C6.00773 2.0929 6.01418 1.99534 5.99967 1.89979C5.96832 1.73807 5.88094 1.59259 5.75291 1.48894C5.62487 1.38529 5.46438 1.33011 5.29967 1.33312H1.99967C1.82286 1.33312 1.65329 1.40336 1.52827 1.52839C1.40325 1.65341 1.33301 1.82298 1.33301 1.99979V13.9998C1.33301 14.1766 1.40325 14.3462 1.52827 14.4712C1.65329 14.5962 1.82286 14.6665 1.99967 14.6665H13.9997C14.1765 14.6665 14.3461 14.5962 14.4711 14.4712C14.5961 14.3462 14.6663 14.1766 14.6663 13.9998V10.6665C14.6674 10.5698 14.6475 10.4741 14.6079 10.3859C14.5684 10.2978 14.5101 10.2193 14.4372 10.1558C14.3642 10.0924 14.2784 10.0456 14.1856 10.0187C14.0928 9.99173 13.9952 9.98529 13.8997 9.99979Z" fill="#646668"/>
</g>
<defs>
<clipPath id="clip0_69_257">
<rect width="16" height="16" fill="white"/>
</clipPath>
</defs>
</svg>