<svg width="32" height="32" viewBox="0 0 32 32" fill="none" xmlns="http://www.w3.org/2000/svg">
<g clip-path="url(#clip0_69_249)">
<path d="M16 32C24.8366 32 32 24.8366 32 16C32 7.16344 24.8366 0 16 0C7.16344 0 0 7.16344 0 16C0 24.8366 7.16344 32 16 32Z" fill="url(#paint0_linear_69_249)"/>
<path d="M9.78501 22.4201L13.975 16.8701C14.065 16.7501 14.065 16.5826 13.975 16.4626L9.88501 11.0376C9.71751 10.8151 9.87501 10.4951 10.155 10.4951H12.2475C12.4275 10.4951 12.5975 10.5801 12.7025 10.7276L15.695 14.8326C15.7575 14.9201 15.86 14.9726 15.9675 14.9726H16.0275C16.135 14.9726 16.2375 14.9201 16.3 14.8326L19.2925 10.7276C19.3975 10.5826 19.5675 10.4951 19.7475 10.4951H21.865C22.145 10.4951 22.305 10.8151 22.135 11.0376L18.0225 16.4601C17.93 16.5801 17.93 16.7476 18.0225 16.8676L22.2125 22.4176C22.38 22.6401 22.2225 22.9601 21.9425 22.9601H19.8C19.62 22.9601 19.45 22.8726 19.3425 22.7276L16.3 18.5251C16.2375 18.4376 16.135 18.3851 16.025 18.3851H15.965C15.8575 18.3851 15.755 18.4376 15.69 18.5251L12.6475 22.7276C12.5425 22.8751 12.3725 22.9601 12.19 22.9601H10.0475C9.76751 22.9601 9.61001 22.6401 9.77751 22.4176L9.78501 22.4201Z" fill="#FFF8F0"/>
<path d="M24.4747 12.0725L25.8222 10.725C25.8822 10.665 25.9172 10.5825 25.9172 10.495V7.12246C25.9172 7.03246 25.8447 6.95996 25.7547 6.95996H22.3822C22.2972 6.95996 22.2147 6.99496 22.1522 7.05496L20.8047 8.40246C20.7547 8.45246 20.7897 8.53996 20.8622 8.53996H24.2522C24.2972 8.53996 24.3322 8.57746 24.3322 8.61996V12.01C24.3322 12.0825 24.4197 12.1175 24.4697 12.0675L24.4747 12.0725Z" fill="#FFF8F0"/>
<g clip-path="url(#clip1_69_249)">
<path d="M16 32C24.8366 32 32 24.8366 32 16C32 7.16344 24.8366 0 16 0C7.16344 0 0 7.16344 0 16C0 24.8366 7.16344 32 16 32Z" fill="#0C080B"/>
<path d="M9.78501 22.4201L13.975 16.8701C14.065 16.7501 14.065 16.5826 13.975 16.4626L9.88501 11.0376C9.71751 10.8151 9.87501 10.4951 10.155 10.4951H12.2475C12.4275 10.4951 12.5975 10.5801 12.7025 10.7276L15.695 14.8326C15.7575 14.9201 15.86 14.9726 15.9675 14.9726H16.0275C16.135 14.9726 16.2375 14.9201 16.3 14.8326L19.2925 10.7276C19.3975 10.5826 19.5675 10.4951 19.7475 10.4951H21.865C22.145 10.4951 22.305 10.8151 22.135 11.0376L18.0225 16.4601C17.93 16.5801 17.93 16.7476 18.0225 16.8676L22.2125 22.4176C22.38 22.6401 22.2225 22.9601 21.9425 22.9601H19.8C19.62 22.9601 19.45 22.8726 19.3425 22.7276L16.3 18.5251C16.2375 18.4376 16.135 18.3851 16.025 18.3851H15.965C15.8575 18.3851 15.755 18.4376 15.69 18.5251L12.6475 22.7276C12.5425 22.8751 12.3725 22.9601 12.19 22.9601H10.0475C9.76751 22.9601 9.61001 22.6401 9.77751 22.4176L9.78501 22.4201Z" fill="#FFF8F0"/>
<path d="M24.4747 12.0725L25.8222 10.725C25.8822 10.665 25.9172 10.5825 25.9172 10.495V7.12246C25.9172 7.03246 25.8447 6.95996 25.7547 6.95996H22.3822C22.2972 6.95996 22.2147 6.99496 22.1522 7.05496L20.8047 8.40246C20.7547 8.45246 20.7897 8.53996 20.8622 8.53996H24.2522C24.2972 8.53996 24.3322 8.57746 24.3322 8.61996V12.01C24.3322 12.0825 24.4197 12.1175 24.4697 12.0675L24.4747 12.0725Z" fill="url(#paint1_linear_69_249)"/>
</g>
</g>
<defs>
<linearGradient id="paint0_linear_69_249" x1="31.6675" y1="1.4925" x2="4.825" y2="26.3475" gradientUnits="userSpaceOnUse">
<stop offset="0.01" stop-color="#F5BB7E"/>
<stop offset="0.58" stop-color="#FF5100"/>
<stop offset="0.69" stop-color="#FC4808"/>
<stop offset="0.88" stop-color="#F4301F"/>
<stop offset="1" stop-color="#EE1E32"/>
</linearGradient>
<linearGradient id="paint1_linear_69_249" x1="20.7847" y1="9.52996" x2="25.9172" y2="9.52996" gradientUnits="userSpaceOnUse">
<stop offset="0.01" stop-color="#F5BB7E"/>
<stop offset="0.58" stop-color="#FF5100"/>
<stop offset="0.69" stop-color="#FC4808"/>
<stop offset="0.88" stop-color="#F4301F"/>
<stop offset="1" stop-color="#EE1E32"/>
</linearGradient>
<clipPath id="clip0_69_249">
<rect width="32" height="32" fill="white"/>
</clipPath>
<clipPath id="clip1_69_249">
<rect width="32" height="32" fill="white"/>
</clipPath>
</defs>
</svg>