<svg width="128" height="17" viewBox="0 0 128 17" fill="none" xmlns="http://www.w3.org/2000/svg">
<path d="M1.99858 1.36364L5.23722 10.8409H5.3679L8.60653 1.36364H10.5043L6.31676 13H4.28835L0.100852 1.36364H1.99858ZM12.0483 13V4.27273H13.7472V13H12.0483ZM12.9062 2.92614C12.6108 2.92614 12.357 2.82765 12.1449 2.63068C11.9366 2.42992 11.8324 2.19129 11.8324 1.91477C11.8324 1.63447 11.9366 1.39583 12.1449 1.19886C12.357 0.998106 12.6108 0.897727 12.9062 0.897727C13.2017 0.897727 13.4536 0.998106 13.6619 1.19886C13.8741 1.39583 13.9801 1.63447 13.9801 1.91477C13.9801 2.19129 13.8741 2.42992 13.6619 2.63068C13.4536 2.82765 13.2017 2.92614 12.9062 2.92614ZM19.794 13.1761C18.9342 13.1761 18.1937 12.9924 17.5724 12.625C16.955 12.2538 16.4777 11.733 16.1406 11.0625C15.8073 10.3883 15.6406 9.59848 15.6406 8.69318C15.6406 7.79924 15.8073 7.01136 16.1406 6.32955C16.4777 5.64773 16.9474 5.11553 17.5497 4.73295C18.1558 4.35038 18.8641 4.15909 19.6747 4.15909C20.1671 4.15909 20.6444 4.24053 21.1065 4.40341C21.5687 4.56629 21.9834 4.82197 22.3509 5.17045C22.7183 5.51894 23.008 5.97159 23.2202 6.52841C23.4323 7.08144 23.5384 7.75379 23.5384 8.54545V9.14773H16.6009V7.875H21.8736C21.8736 7.42803 21.7827 7.0322 21.6009 6.6875C21.419 6.33902 21.1634 6.06439 20.8338 5.86364C20.508 5.66288 20.1255 5.5625 19.6861 5.5625C19.2088 5.5625 18.7921 5.67992 18.4361 5.91477C18.0838 6.14583 17.8111 6.44886 17.6179 6.82386C17.4285 7.19508 17.3338 7.59848 17.3338 8.03409V9.02841C17.3338 9.61174 17.4361 10.108 17.6406 10.517C17.849 10.9261 18.1387 11.2386 18.5099 11.4545C18.8812 11.6667 19.3149 11.7727 19.8111 11.7727C20.133 11.7727 20.4266 11.7273 20.6918 11.6364C20.9569 11.5417 21.1861 11.4015 21.3793 11.2159C21.5724 11.0303 21.7202 10.8011 21.8224 10.5284L23.4304 10.8182C23.3016 11.2917 23.0705 11.7064 22.7372 12.0625C22.4077 12.4148 21.9929 12.6894 21.4929 12.8864C20.9967 13.0795 20.4304 13.1761 19.794 13.1761ZM27.2997 13L24.7315 4.27273H26.4872L28.1974 10.6818H28.2827L29.9986 4.27273H31.7543L33.4588 10.6534H33.544L35.2429 4.27273H36.9986L34.4361 13H32.7031L30.9304 6.69886H30.7997L29.027 13H27.2997ZM46.5213 13.1761C45.7031 13.1761 44.9891 12.9886 44.3793 12.6136C43.7694 12.2386 43.2959 11.714 42.9588 11.0398C42.6217 10.3655 42.4531 9.57765 42.4531 8.67614C42.4531 7.77083 42.6217 6.97917 42.9588 6.30114C43.2959 5.62311 43.7694 5.09659 44.3793 4.72159C44.9891 4.34659 45.7031 4.15909 46.5213 4.15909C47.3395 4.15909 48.0535 4.34659 48.6634 4.72159C49.2732 5.09659 49.7467 5.62311 50.0838 6.30114C50.4209 6.97917 50.5895 7.77083 50.5895 8.67614C50.5895 9.57765 50.4209 10.3655 50.0838 11.0398C49.7467 11.714 49.2732 12.2386 48.6634 12.6136C48.0535 12.9886 47.3395 13.1761 46.5213 13.1761ZM46.527 11.75C47.0573 11.75 47.4967 11.6098 47.8452 11.3295C48.1937 11.0492 48.4512 10.6761 48.6179 10.2102C48.7884 9.74432 48.8736 9.23106 48.8736 8.67045C48.8736 8.11364 48.7884 7.60227 48.6179 7.13636C48.4512 6.66667 48.1937 6.28977 47.8452 6.00568C47.4967 5.72159 47.0573 5.57955 46.527 5.57955C45.9929 5.57955 45.5497 5.72159 45.1974 6.00568C44.849 6.28977 44.5895 6.66667 44.419 7.13636C44.2524 7.60227 44.169 8.11364 44.169 8.67045C44.169 9.23106 44.2524 9.74432 44.419 10.2102C44.5895 10.6761 44.849 11.0492 45.1974 11.3295C45.5497 11.6098 45.9929 11.75 46.527 11.75ZM54.1847 7.81818V13H52.4858V4.27273H54.1165V5.69318H54.2244C54.4252 5.23106 54.7396 4.85985 55.1676 4.57955C55.5994 4.29924 56.143 4.15909 56.7983 4.15909C57.393 4.15909 57.9138 4.28409 58.3608 4.53409C58.8078 4.7803 59.1544 5.14773 59.4006 5.63636C59.6468 6.125 59.7699 6.72917 59.7699 7.44886V13H58.071V7.65341C58.071 7.02083 57.9063 6.52652 57.5767 6.17045C57.2472 5.81061 56.7945 5.63068 56.2188 5.63068C55.8248 5.63068 55.4744 5.71591 55.1676 5.88636C54.8646 6.05682 54.6241 6.30682 54.446 6.63636C54.2718 6.96212 54.1847 7.35606 54.1847 7.81818ZM70.044 13.1761C69.1842 13.1761 68.4437 12.9924 67.8224 12.625C67.205 12.2538 66.7277 11.733 66.3906 11.0625C66.0573 10.3883 65.8906 9.59848 65.8906 8.69318C65.8906 7.79924 66.0573 7.01136 66.3906 6.32955C66.7277 5.64773 67.1974 5.11553 67.7997 4.73295C68.4058 4.35038 69.1141 4.15909 69.9247 4.15909C70.4171 4.15909 70.8944 4.24053 71.3565 4.40341C71.8187 4.56629 72.2334 4.82197 72.6009 5.17045C72.9683 5.51894 73.258 5.97159 73.4702 6.52841C73.6823 7.08144 73.7884 7.75379 73.7884 8.54545V9.14773H66.8509V7.875H72.1236C72.1236 7.42803 72.0327 7.0322 71.8509 6.6875C71.669 6.33902 71.4134 6.06439 71.0838 5.86364C70.758 5.66288 70.3755 5.5625 69.9361 5.5625C69.4588 5.5625 69.0421 5.67992 68.6861 5.91477C68.3338 6.14583 68.0611 6.44886 67.8679 6.82386C67.6785 7.19508 67.5838 7.59848 67.5838 8.03409V9.02841C67.5838 9.61174 67.6861 10.108 67.8906 10.517C68.099 10.9261 68.3887 11.2386 68.7599 11.4545C69.1312 11.6667 69.5649 11.7727 70.0611 11.7727C70.383 11.7727 70.6766 11.7273 70.9418 11.6364C71.2069 11.5417 71.4361 11.4015 71.6293 11.2159C71.8224 11.0303 71.9702 10.8011 72.0724 10.5284L73.6804 10.8182C73.5516 11.2917 73.3205 11.7064 72.9872 12.0625C72.6577 12.4148 72.2429 12.6894 71.7429 12.8864C71.2467 13.0795 70.6804 13.1761 70.044 13.1761ZM76.8111 4.27273L78.7372 7.67045L80.6804 4.27273H82.5384L79.8168 8.63636L82.5611 13H80.7031L78.7372 9.73864L76.777 13H74.9134L77.6293 8.63636L74.9474 4.27273H76.8111ZM84.2827 16.2727V4.27273H85.9418V5.6875H86.0838C86.1823 5.50568 86.3243 5.29545 86.5099 5.05682C86.6955 4.81818 86.9531 4.60985 87.2827 4.43182C87.6122 4.25 88.0478 4.15909 88.5895 4.15909C89.294 4.15909 89.9228 4.33712 90.4759 4.69318C91.0289 5.04924 91.4626 5.5625 91.777 6.23295C92.0952 6.90341 92.2543 7.71023 92.2543 8.65341C92.2543 9.59659 92.0971 10.4053 91.7827 11.0795C91.4683 11.75 91.0365 12.267 90.4872 12.6307C89.938 12.9905 89.3111 13.1705 88.6065 13.1705C88.0762 13.1705 87.6425 13.0814 87.3054 12.9034C86.9721 12.7254 86.7107 12.517 86.5213 12.2784C86.3319 12.0398 86.1861 11.8277 86.0838 11.642H85.9815V16.2727H84.2827ZM85.9474 8.63636C85.9474 9.25 86.0365 9.78788 86.2145 10.25C86.3925 10.7121 86.6501 11.0739 86.9872 11.3352C87.3243 11.5928 87.7372 11.7216 88.2259 11.7216C88.7334 11.7216 89.1577 11.5871 89.4986 11.3182C89.8395 11.0455 90.0971 10.6761 90.2713 10.2102C90.4493 9.74432 90.5384 9.2197 90.5384 8.63636C90.5384 8.06061 90.4512 7.54356 90.277 7.08523C90.1065 6.62689 89.849 6.26515 89.5043 6C89.1634 5.73485 88.7372 5.60227 88.2259 5.60227C87.7334 5.60227 87.3168 5.72917 86.9759 5.98295C86.6387 6.23674 86.383 6.59091 86.2088 7.04545C86.0346 7.5 85.9474 8.0303 85.9474 8.63636ZM95.8565 1.36364V13H94.1577V1.36364H95.8565ZM101.818 13.1761C101 13.1761 100.286 12.9886 99.6761 12.6136C99.0663 12.2386 98.5928 11.714 98.2557 11.0398C97.9186 10.3655 97.75 9.57765 97.75 8.67614C97.75 7.77083 97.9186 6.97917 98.2557 6.30114C98.5928 5.62311 99.0663 5.09659 99.6761 4.72159C100.286 4.34659 101 4.15909 101.818 4.15909C102.636 4.15909 103.35 4.34659 103.96 4.72159C104.57 5.09659 105.044 5.62311 105.381 6.30114C105.718 6.97917 105.886 7.77083 105.886 8.67614C105.886 9.57765 105.718 10.3655 105.381 11.0398C105.044 11.714 104.57 12.2386 103.96 12.6136C103.35 12.9886 102.636 13.1761 101.818 13.1761ZM101.824 11.75C102.354 11.75 102.794 11.6098 103.142 11.3295C103.491 11.0492 103.748 10.6761 103.915 10.2102C104.085 9.74432 104.17 9.23106 104.17 8.67045C104.17 8.11364 104.085 7.60227 103.915 7.13636C103.748 6.66667 103.491 6.28977 103.142 6.00568C102.794 5.72159 102.354 5.57955 101.824 5.57955C101.29 5.57955 100.847 5.72159 100.494 6.00568C100.146 6.28977 99.8864 6.66667 99.7159 7.13636C99.5492 7.60227 99.4659 8.11364 99.4659 8.67045C99.4659 9.23106 99.5492 9.74432 99.7159 10.2102C99.8864 10.6761 100.146 11.0492 100.494 11.3295C100.847 11.6098 101.29 11.75 101.824 11.75ZM107.783 13V4.27273H109.425V5.65909H109.516C109.675 5.18939 109.955 4.82008 110.357 4.55114C110.762 4.27841 111.22 4.14205 111.732 4.14205C111.838 4.14205 111.963 4.14583 112.107 4.15341C112.254 4.16098 112.37 4.17045 112.453 4.18182V5.80682C112.385 5.78788 112.264 5.76705 112.089 5.74432C111.915 5.7178 111.741 5.70455 111.567 5.70455C111.165 5.70455 110.807 5.78977 110.493 5.96023C110.182 6.12689 109.936 6.35985 109.754 6.65909C109.572 6.95455 109.482 7.29167 109.482 7.67045V13H107.783ZM117.372 13.1761C116.512 13.1761 115.772 12.9924 115.151 12.625C114.533 12.2538 114.056 11.733 113.719 11.0625C113.385 10.3883 113.219 9.59848 113.219 8.69318C113.219 7.79924 113.385 7.01136 113.719 6.32955C114.056 5.64773 114.526 5.11553 115.128 4.73295C115.734 4.35038 116.442 4.15909 117.253 4.15909C117.745 4.15909 118.223 4.24053 118.685 4.40341C119.147 4.56629 119.562 4.82197 119.929 5.17045C120.296 5.51894 120.586 5.97159 120.798 6.52841C121.01 7.08144 121.116 7.75379 121.116 8.54545V9.14773H114.179V7.875H119.452C119.452 7.42803 119.361 7.0322 119.179 6.6875C118.997 6.33902 118.741 6.06439 118.412 5.86364C118.086 5.66288 117.704 5.5625 117.264 5.5625C116.787 5.5625 116.37 5.67992 116.014 5.91477C115.662 6.14583 115.389 6.44886 115.196 6.82386C115.007 7.19508 114.912 7.59848 114.912 8.03409V9.02841C114.912 9.61174 115.014 10.108 115.219 10.517C115.427 10.9261 115.717 11.2386 116.088 11.4545C116.459 11.6667 116.893 11.7727 117.389 11.7727C117.711 11.7727 118.005 11.7273 118.27 11.6364C118.535 11.5417 118.764 11.4015 118.957 11.2159C119.151 11.0303 119.298 10.8011 119.401 10.5284L121.009 10.8182C120.88 11.2917 120.649 11.7064 120.315 12.0625C119.986 12.4148 119.571 12.6894 119.071 12.8864C118.575 13.0795 118.009 13.1761 117.372 13.1761ZM123.001 13V4.27273H124.643V5.65909H124.734C124.893 5.18939 125.174 4.82008 125.575 4.55114C125.981 4.27841 126.439 4.14205 126.95 4.14205C127.056 4.14205 127.181 4.14583 127.325 4.15341C127.473 4.16098 127.589 4.17045 127.672 4.18182V5.80682C127.604 5.78788 127.482 5.76705 127.308 5.74432C127.134 5.7178 126.96 5.70455 126.786 5.70455C126.384 5.70455 126.026 5.78977 125.712 5.96023C125.401 6.12689 125.155 6.35985 124.973 6.65909C124.791 6.95455 124.7 7.29167 124.7 7.67045V13H123.001Z" fill="#646668"/>
</svg>