<?xml version="1.0" encoding="UTF-8"?>
<svg width="41px" height="41px" viewBox="0 0 41 41" version="1.1" xmlns="http://www.w3.org/2000/svg" xmlns:xlink="http://www.w3.org/1999/xlink">
    <title>kinetixperp</title>
    <defs>
        <linearGradient x1="50%" y1="0%" x2="50%" y2="154%" id="linearGradient-1">
            <stop stop-color="#9F38EB" offset="0%"></stop>
            <stop stop-color="#2188C6" offset="100%"></stop>
        </linearGradient>
    </defs>
    <g id="Page-1" stroke="none" stroke-width="1" fill="none" fill-rule="evenodd">
        <g id="kinetixperp" transform="translate(0.891000, 0.959000)" fill-rule="nonzero">
            <path d="M40,20 C40,31.045695 31.045695,40 20,40 C8.954305,40 0,31.045695 0,20 C0,8.954305 8.954305,0 20,0 C25.3043298,0 30.3914081,2.10713681 34.1421356,5.85786438 C37.8928632,9.60859195 40,14.6956702 40,20" id="Path_16225" fill="url(#linearGradient-1)"></path>
            <path d="M35.0169893,33.2187389 L19.9308129,33.2187389 L19.9308129,33.2187389 C15.1693818,33.1669846 10.8037341,30.5584181 8.50216664,26.3898823 C6.20059917,22.2213464 6.31882788,17.137104 8.81167264,13.0800572 L10.3221045,11.0247382 L23.713965,29.0665888 C24.6843515,28.6750841 25.5861689,28.1314817 26.3855107,27.4562199 L12.5102628,9.14899832 L14.4167525,8.05092173 C19.853877,5.47621335 26.3437277,6.89714098 30.2075443,11.5082543 C34.071361,16.1193677 34.3346779,22.7577306 30.8482342,27.6603988 L35.0169893,33.2187389 Z M10.6631202,17.3739641 C9.85008397,20.2929801 10.4369065,23.4240128 12.2518041,25.8504977 C14.0667016,28.2769827 16.9043968,29.7244677 19.9341954,29.7692225 L10.6631202,17.3739641 Z M17.950831,10.4601713 L28.6357836,24.7084147 C30.4806076,21.3433476 30.186537,17.2102464 27.8838593,14.1402745 C25.5811816,11.0703026 21.6956249,9.63104853 17.9486785,10.4601713" id="Path_16226" fill="#FFFFFF"></path>
            <g id="Group_25979" transform="translate(6.822773, 6.676404)">
                <path d="M13.3235959,1.09245358e-15 C20.6820147,1.09245358e-15 26.6471918,5.96517707 26.6471918,13.3235959 C26.6471918,20.6820147 20.6820147,26.6471918 13.3235959,26.6471918 C5.96517707,26.6471918 0,20.6820147 0,13.3235959 C0,5.96517707 5.96517707,1.09245358e-15 13.3235959,1.09245358e-15" id="Path_16214" fill="#FFFFFF"></path>
                <path d="M21.1700312,5.66903953 C20.2258318,4.71377699 19.1151899,3.93889112 17.8927138,3.38248182 C18.0586508,3.04845311 18.1628259,2.68717393 18.2002122,2.31607755 L18.1467075,2.29301518 C17.9737301,2.6234841 17.7797094,2.94250383 17.5658431,3.24810504 C17.3287546,3.59051747 17.0737927,3.92020252 16.8020172,4.23578973 L17.4308513,4.24286219 C16.6344306,5.91104073 14.3709353,6.6413493 14.3709353,6.6413493 C14.3650928,7.15702403 13.5782045,8.06875663 13.5782045,8.06875663 C14.4814858,7.80576525 15.3334251,7.39097385 16.0975385,6.84214572 C21.5175043,7.09121938 22.8400547,10.2649098 23.2108977,10.8639166 C23.26348,10.9484787 23.2225827,11.0287357 23.2108977,11.0158208 C21.9941268,9.14254086 20.2413862,8.52508418 20.1263818,8.63424609 L20.6989437,9.34149229 C19.2667649,8.65317724 17.7194624,8.23614266 16.1353608,8.1114989 C16.1353608,8.1114989 19.8991405,8.76677788 21.959072,11.4632309 C22.9919882,12.8003007 23.6785763,14.3718482 23.9578112,16.0381913 C23.9707262,16.1282883 23.9784136,16.1990129 23.9817961,16.2491352 C24.2233887,15.3417913 24.3484193,14.4073686 24.3538691,13.4684276 C24.3797207,10.5468943 23.2333589,7.73692351 21.1712612,5.66719454 L21.1700312,5.66903953 Z M15.2888178,2.57529866 L15.1313787,2.5482388 L14.9954644,2.52640642 L14.9757845,2.52640642 L14.7337833,2.4935041 L14.7168709,2.4935041 L14.5828016,2.47751418 C14.4957796,2.46767424 14.4084501,2.45937178 14.320813,2.45106933 L14.2900632,2.45106933 L14.1916637,2.44399686 C14.0883443,2.43538691 13.9844098,2.42831445 13.8792454,2.42339447 C13.7888409,2.419397 13.6975139,2.41478452 13.6068019,2.41355453 L13.1741517,2.41355453 C13.0336249,2.41355453 12.8943282,2.419397 12.7553389,2.42646946 L12.6166572,2.43415692 C6.80024443,2.77216979 2.26516028,7.60229784 2.29393767,13.4284528 C2.28893079,13.6406681 2.30023902,13.8529544 2.32776249,14.0634369 C2.34231825,14.157093 2.3635905,14.2495811 2.39141465,14.3401854 C2.39305223,14.3507411 2.39594262,14.361064 2.4000246,14.3709353 C2.585713,14.9479436 2.83628764,15.5020138 3.14693809,16.0225089 C3.33416249,16.350917 3.54289667,16.6665864 3.77177473,16.9674513 C3.86717188,17.0981574 3.96983291,17.2234039 4.07927307,17.3425993 L4.11279039,17.3791916 L4.15245768,17.4231639 C4.19089497,17.4649836 4.22994726,17.5083409 4.26869206,17.5461632 L4.29421442,17.5719931 C4.85730014,18.1380566 5.51234087,18.6044872 6.23145401,18.9514306 C7.33543123,19.4869297 8.53417284,19.7994677 9.75907504,19.8711582 C10.1845867,19.9000525 10.6116638,19.8970717 11.0367307,19.8622407 L11.0982303,19.8622407 C11.5575992,19.8274262 12.0103587,19.7320976 12.4447656,19.5787273 C12.8104201,19.4651541 13.1528988,19.2873026 13.4561277,19.0535201 C13.8389362,18.7711738 14.1672462,18.4216086 14.425055,18.0218631 C14.806812,17.4453977 15.0190449,16.7733269 15.0375917,16.0821636 C15.0990913,14.4496548 13.4509002,12.6160422 11.1348227,12.4044833 C11.0613305,12.3974109 10.9853785,12.3927984 10.9097339,12.3888009 L10.4792362,12.3888009 L10.3543918,12.3946434 L10.2470749,12.4023308 L10.1529804,12.4109408 C10.0914808,12.4167833 10.0281361,12.4244707 9.96479144,12.4340032 C9.8048923,12.455938 9.64253317,12.4841254 9.47771406,12.5185652 C7.96728218,12.8648084 8.49371935,14.0754293 8.50970926,14.1150966 C8.15321752,14.0826536 7.8013152,14.0115101 7.4602174,13.9029228 L7.44514998,13.8980028 L7.37780784,13.8749404 C7.01364145,13.7492269 6.67840883,13.5517052 6.39196814,13.294076 L6.38766317,13.294076 L6.36060331,13.2676312 C6.17378979,13.0837371 6.01468848,12.8736736 5.88828585,12.6440245 L5.88398087,12.6440245 C5.67537918,12.7747995 5.47379241,12.9164439 5.28005412,13.0683723 C5.13298578,12.2941568 5.10261707,11.5022901 5.1899571,10.7190849 C5.37445611,9.83225965 6.78556603,8.76800787 6.78556603,8.76800787 C6.78556603,8.76800787 6.60936947,9.67943297 7.41932012,9.68804293 C8.22927077,9.69665288 9.17390569,8.42237973 9.21049799,8.53277164 C9.2470903,8.64316354 9.98508633,8.65361849 9.98508633,8.65361849 C9.98508633,8.65361849 9.65268062,8.65361849 9.36424717,8.05983918 C9.07581372,7.46605987 9.97340139,6.59307206 11.4580034,6.05740994 C12.4587989,5.64733001 13.3608831,5.02899462 14.1043342,4.24347719 C14.4733322,4.28529697 14.5726542,5.31756892 14.5726542,5.31756892 C15.5500394,4.72052978 16.432072,3.97988772 17.1891576,3.12049323 C16.5720886,2.88101813 15.9344632,2.69832482 15.2842053,2.57468366 L15.2888178,2.57468366 L15.2888178,2.57529866 Z" id="Path_16215" fill="#2188C6"></path>
                <path d="M19.8942206,21.6260513 C18.9094644,22.9157795 17.4986619,23.8138502 15.913347,24.1601451 C15.6351635,24.2167248 15.3548275,24.2636696 15.072339,24.3009794 L14.9594871,24.3145093 L14.8515552,24.3261942 L14.8186528,24.3261942 C12.8536347,24.5075107 10.8732729,24.2331853 9.03153396,23.5245461 C8.38718605,23.2767616 7.77190559,22.9591708 7.19669132,22.5774511 C6.58252088,22.163699 6.01103935,21.6898679 5.49069049,21.1629587 C3.70162308,19.2055894 2.59548253,16.7208731 2.33821743,14.0815793 C2.35271957,14.1752457 2.3739927,14.2677376 2.40186959,14.3583278 C2.58739399,14.9301366 2.8414956,15.4773688 3.15862302,15.9880691 C3.34537008,16.3164917 3.55369627,16.6321654 3.78222967,16.9330115 C3.87791109,17.063203 3.9805603,17.1881271 4.08972802,17.307237 L4.12263034,17.3438293 L4.16322012,17.388724 C4.20165742,17.4305438 4.24070971,17.4717486 4.2794545,17.5117234 L4.30497686,17.5381682 C4.86805486,18.1042409 5.52309724,18.5706726 6.24221645,18.9176058 C7.34638679,19.4529701 8.54516049,19.7656982 9.77014499,19.8379484 C10.1955675,19.8663967 10.6225093,19.8634161 11.0474931,19.8290309 L11.1108378,19.8290309 C11.5693683,19.7931716 12.0212321,19.6974439 12.4549131,19.5442874 C12.8207225,19.4312379 13.1632733,19.2534531 13.4662751,19.0193878 C13.8489171,18.7371413 14.1769403,18.3875486 14.4342799,17.9877308 C14.816068,17.410519 15.0280906,16.7376935 15.0462016,16.0458788 C15.066189,14.326963 13.2255039,12.375271 10.6419028,12.3977184 C10.5831706,12.3977184 10.5247459,12.3977184 10.4663212,12.4029458 L10.3433219,12.4029458 L10.2230901,12.4130933 C10.1557479,12.4189357 10.0899433,12.4260082 10.0226011,12.4346182 L10.0069187,12.4346182 C9.83748712,12.457373 9.66867053,12.4875079 9.49800895,12.5268677 C8.61548869,12.7288941 8.4285297,13.2267339 8.4285297,13.6135668 C8.42999687,13.7882311 8.46496646,13.9609913 8.53154164,14.1224766 L8.52385418,14.1224766 C8.16748557,14.0898793 7.81570174,14.0187389 7.47466982,13.9103027 L7.45867991,13.9050753 L7.39133777,13.8823204 C7.02684764,13.7567233 6.6915157,13.5587248 6.40549807,13.300226 L6.4002706,13.300226 L6.37321074,13.2747036 C6.27439872,13.1785241 6.18359102,13.07445 6.1016897,12.9635153 C6.02781247,12.8633227 5.96033605,12.7585648 5.89966329,12.649867 C7.28377882,11.77697 8.87409767,11.2855848 10.509371,11.2255347 L10.6788026,11.2184622 C10.9084014,11.2108772 11.1388201,11.2108772 11.3700589,11.2184622 C11.7337269,11.2295321 12.0983175,11.2577195 12.4638305,11.3030242 C13.0163006,11.365559 13.5618464,11.4787855 14.0935717,11.6412724 L14.0994142,11.6412724 L14.0994142,11.6385049 L14.1037192,11.6385049 C13.9709647,11.4006252 13.8126947,11.177913 13.6317092,10.9743085 C13.4066204,10.7132424 12.8177611,10.0269061 12.4266232,10.0324411 L12.5413201,10.0253686 C12.7805538,10.0142987 13.02153,10.0142987 13.2642487,10.0253686 C15.6415079,10.0930156 17.8757894,11.1762357 19.4013007,13.0007226 L19.4320506,13.0314725 L19.4677204,13.0788272 C19.9012415,13.6523527 20.2626945,14.2769435 20.5439646,14.9385772 C20.8212982,15.7247081 21.0043108,16.5409874 21.0891591,17.3702741 C21.2565848,18.889525 20.8281105,20.4144834 19.8939131,21.6242063 L19.8942206,21.6260513 Z" id="Path_16216" fill="#162B4E"></path>
                <path d="M19.8942206,21.6260513 C18.909446,22.9157594 17.4986515,23.813825 15.913347,24.1601451 C15.6351635,24.2167248 15.3552375,24.2636696 15.073569,24.3009794 L14.9597946,24.3142018 L14.8524777,24.3258867 L14.8189603,24.3258867 C14.7436233,24.3335742 14.6673637,24.3397242 14.5911041,24.3455666 C13.8419603,24.4041991 13.0890147,24.3939059 12.3417537,24.3148168 C11.2014849,24.2476443 10.081979,23.9800246 9.03460894,23.5242386 L8.9494319,23.4796513 C9.09026614,23.4725788 9.23509786,23.4796513 9.37808459,23.4796513 C11.2648274,23.4593504 13.0776355,22.7430969 14.4687197,21.4683046 C15.9484293,20.2071044 16.8282963,18.3808389 16.8924217,16.4376316 C16.8924217,16.2411402 16.8831968,16.0418813 16.8653618,15.8435448 L16.8564444,15.7531403 L16.8195446,15.8377024 C16.3716431,16.8626686 15.502345,17.6438372 14.4355099,17.9800434 L14.41091,17.9877308 C14.6230547,17.6820934 14.7834569,17.343628 14.8856875,16.9859012 C14.9779971,16.6782534 15.0296849,16.3598564 15.0394367,16.0388063 C15.0591166,14.3992251 13.3810981,12.5468551 10.983226,12.4026383 L10.9506311,12.4026383 L10.8227118,12.3974109 L10.3402469,12.3974109 C10.2990937,12.3985655 10.2580336,12.4019529 10.2172476,12.4075583 C10.1512379,12.4132983 10.0844083,12.4204732 10.0167587,12.4290832 L10.0016912,12.4290832 C9.83195215,12.4509156 9.65729309,12.4819729 9.48171154,12.5213327 C7.97220215,12.8666533 8.49771682,14.0781968 8.51401424,14.1181716 C7.4353322,14.1363789 6.43039739,13.5724029 5.88398087,12.6421795 C7.27022054,11.7681577 8.86306209,11.2765347 10.5007611,11.2172322 L10.6701926,11.2104672 C10.9002014,11.2027798 11.1314402,11.2027798 11.3614489,11.2104672 C11.722862,11.2221522 12.0851975,11.2503395 12.4484556,11.2950293 C13.0034446,11.3562985 13.5514544,11.4695449 14.0852693,11.6332775 L14.0904968,11.6332775 C13.9567596,11.3959835 13.7982285,11.1735452 13.6175643,10.969696 C13.3943205,10.7101674 12.8100736,10.0305961 12.4183208,10.0281361 L12.4084808,10.0281361 C12.4484556,10.0281361 12.4930428,10.0229086 12.5314801,10.0210636 C12.7713289,10.0099937 13.0121001,10.0099937 13.2537938,10.0210636 C15.6286594,10.0901914 17.8602595,11.1729154 19.3843883,12.9954951 L19.4151381,13.026245 C19.4292831,13.0413124 19.445888,13.0569948 19.4584954,13.0729847 C19.9361718,13.6160085 20.3019157,14.248014 20.5347396,14.9327347 C20.8118987,15.7189871 20.9947053,16.5353717 21.0793192,17.3647392 C21.2507561,18.8850273 20.8247157,20.4124438 19.8911456,21.6245138 L19.8942206,21.6260513 Z" id="Path_16217" fill="#21326F"></path>
                <path d="M18.4840331,0.967082302 C18.4840331,0.967082302 17.394259,3.83850187 16.6617979,4.16352762 C15.9293369,4.48855337 17.296782,4.21303485 17.296782,4.21303485 L14.4902446,6.36060331 C14.4902446,6.36060331 13.9121477,7.75972079 13.5788195,8.02785935 C13.5788195,8.02785935 15.6341385,7.76525576 17.2881721,5.63951969 C18.8401162,3.64416291 18.4840331,0.96554481 18.4840331,0.96554481" id="Path_16218" fill="#162B4E"></path>
                <path d="M14.5099245,5.34186129 C16.218859,4.27665542 17.5966619,2.75572636 18.4883381,0.950169893 C18.4883381,0.950169893 17.8822589,3.10265832 16.8032472,4.1297028 L17.5141834,4.01562092 C16.760145,5.14291257 15.6879923,6.02058575 14.4339724,6.53710736 C14.42762,6.13678854 14.4531202,5.73659865 14.510232,5.3403238 L14.5099245,5.34186129 Z" id="Path_16219" fill="#FFFFFF"></path>
                <path d="M6.38274319,10.6449778 C6.46425575,10.6205744 6.55219804,10.6305078 6.6262133,10.6724788 C6.70022856,10.7144499 6.75389991,10.7848196 6.77480359,10.8672991 L6.78556603,10.8651466 C6.81324088,10.695715 6.81631586,10.3085746 6.47345521,10.3999016 C6.13059455,10.4912286 5.85446103,11.0576406 5.85446103,11.0576406 L5.90089328,11.0478006 C6.02193375,10.8720963 6.18849947,10.7326361 6.38274319,10.6443628 L6.38274319,10.6449778 Z" id="Path_16220" fill="#3A9DD7"></path>
                <path d="M6.50543503,10.1492904 C6.13643702,10.23293 5.85384604,11.0579481 5.85384604,11.0579481 L5.90120078,10.9693885 C5.99345029,10.8057994 6.2145416,10.4675512 6.47314771,10.3992866 C6.74405375,10.327947 6.79878846,10.5530358 6.79632847,10.7344598 C6.79837715,10.73198 6.79975373,10.7290151 6.80032595,10.7258498 C6.83415077,10.5047585 6.96514506,10.045356 6.50574253,10.1492904" id="Path_16221" fill="#162B4E"></path>
                <path d="M10.6040805,8.08720653 C10.5818661,7.79383209 10.7141273,7.51008236 10.9530911,7.33844806 C11.3925355,7.10180468 11.8500998,6.90047637 12.3214588,6.73636629 C12.6873818,6.57339217 13.1320244,6.34768838 13.1378669,6.24713642 C13.079751,6.64849134 12.9121833,7.02607706 12.653557,7.33844806 C12.281484,7.68161621 11.8878861,8.08720653 10.604388,8.08720653" id="Path_16222" fill="#162B4E"></path>
                <path d="M11.1000753,7.93899233 C11.4019232,7.83725389 11.6771191,7.66913119 11.9054135,7.44699497 C12.05077,7.29848072 12.1662285,7.12341392 12.2455067,6.93132024 C12.2683727,6.87663942 12.2794781,6.81775944 12.2781015,6.75850617 C11.8206038,6.91543112 11.3772419,7.11088072 10.9527836,7.34275303 C10.7142107,7.51338905 10.5816393,7.79588944 10.6028505,8.08843652 C10.7717354,8.05013179 10.9377703,8.00019803 11.0997678,7.93899233 L11.1000753,7.93899233 Z" id="Path_16223" fill="#2797D2"></path>
                <path d="M23.2118202,11.0170508 C23.2118202,11.0170508 21.5245768,9.89406682 20.372073,9.93680909 C18.1553174,8.54630156 17.115973,8.34919512 16.1359758,8.1111914 C16.1707231,8.04261927 18.9385157,8.41284728 20.6995587,9.34118479 L20.1036269,8.61518119 C20.1036269,8.61518119 21.0190495,8.54107409 22.5116465,10.1194631 C23.4848788,11.1489676 23.2118202,11.0161283 23.2118202,11.0161283 L23.2118202,11.0170508 Z" id="Path_16224" fill="#162B4E"></path>
            </g>
        </g>
    </g>
</svg>